<svg preserveAspectRatio="none" width="100%" height="100%" overflow="visible" style="display: block;" viewBox="0 0 1992.68 640.692" fill="none" xmlns="http://www.w3.org/2000/svg">
<path id="Vector" d="M1 640.691V596.506L39.2763 574.413M39.2763 530.228L1 508.135V463.948L39.2763 441.856M39.2763 530.228V574.413M39.2763 530.228L77.5526 508.134M39.2763 574.413L77.5526 596.506M77.5526 640.692V596.506M77.5526 596.506L115.829 574.412M39.2763 397.67L1 375.577V331.393L39.2763 309.3M39.2763 397.67V441.856M39.2763 397.67L77.5526 375.578M39.2763 441.856L77.5526 463.948M77.5526 508.134V463.948M77.5526 508.134L115.829 530.227M77.5526 463.948L115.829 441.855M39.2763 265.114L1 243.021V198.835L39.2763 176.742M39.2763 265.114V309.3M39.2763 265.114L77.5526 243.021M39.2763 309.3L77.5526 331.393M77.5526 375.578V331.393M77.5526 375.578L115.829 397.669M77.5526 331.393L115.829 309.299M154.105 640.69V596.505M307.21 640.691V596.506M154.105 508.134L192.381 530.227M154.105 508.134L115.829 530.227M154.105 508.134V463.948M192.381 530.227V574.412M192.381 530.227L230.658 508.133M192.381 574.412L154.105 596.505M192.381 574.412L230.658 596.505M154.105 596.505L115.829 574.412M115.829 574.412V530.227M230.658 640.691V596.505M230.658 596.505L268.934 574.413M307.21 508.135L345.487 530.228M307.21 508.135L268.934 530.228M307.21 508.135V463.948M345.487 530.228V574.413M345.487 530.228L383.763 508.134M345.487 574.413L307.21 596.506M345.487 574.413L383.763 596.506M307.21 596.506L268.934 574.413M268.934 574.413V530.228M268.934 530.228L230.658 508.133M383.763 640.692V596.506M383.763 596.506L422.039 574.412M154.105 375.576L192.381 397.669M154.105 375.576L115.829 397.669M154.105 375.576V331.392M192.381 397.669V441.855M192.381 397.669L230.658 375.577M192.381 441.855L154.105 463.948M192.381 441.855L230.658 463.948M154.105 463.948L115.829 441.855M115.829 441.855V397.669M230.658 508.133V463.948M230.658 463.948L268.934 441.856M307.21 375.577L345.487 397.67M307.21 375.577L268.934 397.67M307.21 375.577V331.393M345.487 397.67V441.856M345.487 397.67L383.763 375.578M345.487 441.856L307.21 463.948M345.487 441.856L383.763 463.948M307.21 463.948L268.934 441.856M268.934 441.856V397.67M268.934 397.67L230.658 375.577M383.763 508.134V463.948M383.763 508.134L422.039 530.227M383.763 463.948L422.039 441.855M154.105 243.021L192.381 265.113M154.105 243.021L115.829 265.113M154.105 243.021V198.834M192.381 265.113V309.299M192.381 265.113L230.658 243.02M192.381 309.299L154.105 331.392M192.381 309.299L230.658 331.392M154.105 331.392L115.829 309.299M115.829 309.299V265.113M115.829 265.113L77.5526 243.021M230.658 375.577V331.392M230.658 331.392L268.934 309.3M307.21 243.021L345.487 265.114M307.21 243.021L268.934 265.114M307.21 243.021V198.835M345.487 265.114V309.3M345.487 265.114L383.763 243.021M345.487 309.3L307.21 331.393M345.487 309.3L383.763 331.393M307.21 331.393L268.934 309.3M268.934 309.3V265.114M268.934 265.114L230.658 243.02M383.763 375.578V331.393M383.763 375.578L422.039 397.669M383.763 331.393L422.039 309.299M460.315 640.69V596.505M613.421 640.691V596.506M460.315 508.134L498.592 530.227M460.315 508.134L422.039 530.227M460.315 508.134V463.948M498.592 530.227V574.412M498.592 530.227L536.868 508.133M498.592 574.412L460.315 596.505M498.592 574.412L536.868 596.505M460.315 596.505L422.039 574.412M422.039 574.412V530.227M536.868 640.691V596.505M536.868 596.505L575.144 574.413M613.421 508.135L651.697 530.228M613.421 508.135L575.144 530.228M613.421 508.135V463.948M651.697 530.228V574.413M651.697 530.228L689.973 508.134M651.697 574.413L613.421 596.506M651.697 574.413L689.973 596.506M613.421 596.506L575.144 574.413M575.144 574.413V530.228M575.144 530.228L536.868 508.133M689.973 640.692V596.506M689.973 596.506L728.249 574.412M460.315 375.576L498.592 397.669M460.315 375.576L422.039 397.669M460.315 375.576V331.392M498.592 397.669V441.855M498.592 397.669L536.868 375.577M498.592 441.855L460.315 463.948M498.592 441.855L536.868 463.948M460.315 463.948L422.039 441.855M422.039 441.855V397.669M536.868 508.133V463.948M536.868 463.948L575.144 441.856M613.421 375.577L651.697 397.67M613.421 375.577L575.144 397.67M613.421 375.577V331.393M651.697 397.67V441.856M651.697 397.67L689.973 375.578M651.697 441.856L613.421 463.948M651.697 441.856L689.973 463.948M613.421 463.948L575.144 441.856M575.144 441.856V397.67M575.144 397.67L536.868 375.577M689.973 508.134V463.948M689.973 508.134L728.249 530.227M689.973 463.948L728.249 441.855M460.315 243.021L498.592 265.113M460.315 243.021L422.039 265.113M460.315 243.021V198.834M498.592 265.113V309.299M498.592 265.113L536.868 243.02M498.592 309.299L460.315 331.392M498.592 309.299L536.868 331.392M460.315 331.392L422.039 309.299M422.039 309.299V265.113M422.039 265.113L383.763 243.021M536.868 375.577V331.392M536.868 331.392L575.144 309.3M613.421 243.021L651.697 265.114M613.421 243.021L575.144 265.114M613.421 243.021V198.835M651.697 265.114V309.3M651.697 265.114L689.973 243.021M651.697 309.3L613.421 331.393M651.697 309.3L689.973 331.393M613.421 331.393L575.144 309.3M575.144 309.3V265.114M575.144 265.114L536.868 243.02M689.973 375.578V331.393M689.973 375.578L728.249 397.669M689.973 331.393L728.249 309.299M766.526 640.69V596.505M919.631 640.691V596.506M766.526 508.134L804.802 530.227M766.526 508.134L728.249 530.227M766.526 508.134V463.948M804.802 530.227V574.412M804.802 530.227L843.078 508.133M804.802 574.412L766.526 596.505M804.802 574.412L843.078 596.505M766.526 596.505L728.249 574.412M728.249 574.412V530.227M843.078 640.691V596.505M843.078 596.505L881.355 574.413M919.631 508.135L957.907 530.228M919.631 508.135L881.355 530.228M919.631 508.135V463.948M957.907 530.228V574.413M957.907 530.228L996.183 508.134V463.948L957.907 441.856M957.907 574.413L919.631 596.506M957.907 574.413L996.183 596.506V640.692M919.631 596.506L881.355 574.413M881.355 574.413V530.228M881.355 530.228L843.078 508.133M766.526 375.576L804.802 397.669M766.526 375.576L728.249 397.669M766.526 375.576V331.392M804.802 397.669V441.855M804.802 397.669L843.078 375.577M804.802 441.855L766.526 463.948M804.802 441.855L843.078 463.948M766.526 463.948L728.249 441.855M728.249 441.855V397.669M843.078 508.133V463.948M843.078 463.948L881.355 441.856M919.631 375.577L957.907 397.67M919.631 375.577L881.355 397.67M919.631 375.577V331.393M957.907 397.67V441.856M957.907 397.67L996.183 375.578V331.393L957.907 309.3M957.907 441.856L919.631 463.948M919.631 463.948L881.355 441.856M881.355 441.856V397.67M881.355 397.67L843.078 375.577M766.526 243.021L804.802 265.113M766.526 243.021L728.249 265.113M766.526 243.021V198.834M804.802 265.113V309.299M804.802 265.113L843.078 243.02M804.802 309.299L766.526 331.392M804.802 309.299L843.078 331.392M766.526 331.392L728.249 309.299M728.249 309.299V265.113M728.249 265.113L689.973 243.021M843.078 375.577V331.392M843.078 331.392L881.355 309.3M919.631 243.021L957.907 265.114M919.631 243.021L881.355 265.114M919.631 243.021V198.835M957.907 265.114V309.3M957.907 265.114L996.183 243.021V198.835L957.907 176.742M957.907 309.3L919.631 331.393M919.631 331.393L881.355 309.3M881.355 309.3V265.114M881.355 265.114L843.078 243.02M39.2763 132.557L1 110.464V66.2792L39.2763 44.1864M39.2763 132.557V176.742M39.2763 132.557L77.5526 110.465M39.2763 176.742L77.5526 198.835M77.5526 243.021V198.835M77.5526 198.835L115.829 176.741M39.2763 0.00088501V44.1864M39.2763 44.1864L77.5526 66.2792M77.5526 110.465V66.2792M77.5526 110.465L115.829 132.556M77.5526 66.2792L115.829 44.1856M154.105 110.463L192.381 132.556M154.105 110.463L115.829 132.556M154.105 110.463V66.2784M192.381 132.556V176.741M192.381 132.556L230.658 110.464M192.381 176.741L154.105 198.834M192.381 176.741L230.658 198.834M154.105 198.834L115.829 176.741M115.829 176.741V132.556M230.658 243.02V198.834M230.658 198.834L268.934 176.742M307.21 110.464L345.487 132.557M307.21 110.464L268.934 132.557M307.21 110.464V66.2792M345.487 132.557V176.742M345.487 132.557L383.763 110.465M345.487 176.742L307.21 198.835M345.487 176.742L383.763 198.835M307.21 198.835L268.934 176.742M268.934 176.742V132.557M268.934 132.557L230.658 110.464M383.763 243.021V198.835M383.763 198.835L422.039 176.741M192.381 0V44.1856M192.381 44.1856L154.105 66.2784M192.381 44.1856L230.658 66.2784M154.105 66.2784L115.829 44.1856M115.829 44.1856V0M230.658 110.464V66.2784M230.658 66.2784L268.934 44.1864M345.487 0.00088501V44.1864M345.487 44.1864L307.21 66.2792M345.487 44.1864L383.763 66.2792M307.21 66.2792L268.934 44.1864M268.934 44.1864V0.00088501M383.763 110.465V66.2792M383.763 110.465L422.039 132.556M383.763 66.2792L422.039 44.1856M460.315 110.463L498.592 132.556M460.315 110.463L422.039 132.556M460.315 110.463V66.2784M498.592 132.556V176.741M498.592 132.556L536.868 110.464M498.592 176.741L460.315 198.834M498.592 176.741L536.868 198.834M460.315 198.834L422.039 176.741M422.039 176.741V132.556M536.868 243.02V198.834M536.868 198.834L575.144 176.742M613.421 110.464L651.697 132.557M613.421 110.464L575.144 132.557M613.421 110.464V66.2792M651.697 132.557V176.742M651.697 132.557L689.973 110.465M651.697 176.742L613.421 198.835M651.697 176.742L689.973 198.835M613.421 198.835L575.144 176.742M575.144 176.742V132.557M575.144 132.557L536.868 110.464M689.973 243.021V198.835M689.973 198.835L728.249 176.741M498.592 0V44.1856M498.592 44.1856L460.315 66.2784M498.592 44.1856L536.868 66.2784M460.315 66.2784L422.039 44.1856M422.039 44.1856V0M536.868 110.464V66.2784M536.868 66.2784L575.144 44.1864M651.697 0.00088501V44.1864M651.697 44.1864L613.421 66.2792M651.697 44.1864L689.973 66.2792M613.421 66.2792L575.144 44.1864M575.144 44.1864V0.00088501M689.973 110.465V66.2792M689.973 110.465L728.249 132.556M689.973 66.2792L728.249 44.1856M766.526 110.463L804.802 132.556M766.526 110.463L728.249 132.556M766.526 110.463V66.2784M804.802 132.556V176.741M804.802 132.556L843.078 110.464M804.802 176.741L766.526 198.834M804.802 176.741L843.078 198.834M766.526 198.834L728.249 176.741M728.249 176.741V132.556M843.078 243.02V198.834M843.078 198.834L881.355 176.742M919.631 110.464L957.907 132.557M919.631 110.464L881.355 132.557M919.631 110.464V66.2792M957.907 132.557V176.742M957.907 132.557L996.183 110.465V66.2792L957.907 44.1864M957.907 176.742L919.631 198.835M919.631 198.835L881.355 176.742M881.355 176.742V132.557M881.355 132.557L843.078 110.464M804.802 0V44.1856M804.802 44.1856L766.526 66.2784M804.802 44.1856L843.078 66.2784M766.526 66.2784L728.249 44.1856M728.249 44.1856V0M843.078 110.464V66.2784M843.078 66.2784L881.355 44.1864M957.907 0.00088501V44.1864M957.907 44.1864L919.631 66.2792M919.631 66.2792L881.355 44.1864M881.355 44.1864V0.00088501M1073.05 640.69V596.505M1226.16 640.691V596.506M1073.05 508.134L1111.33 530.227M1073.05 508.134L1034.78 530.227M1073.05 508.134V463.948M1111.33 530.227V574.412M1111.33 530.227L1149.61 508.133M1111.33 574.412L1073.05 596.505M1111.33 574.412L1149.61 596.505M1073.05 596.505L1034.78 574.412M1034.78 574.412V530.227M1034.78 574.412L996.501 596.505V640.691M1034.78 530.227L996.501 508.133V463.948L1034.78 441.855M1149.61 640.691V596.505M1149.61 596.505L1187.88 574.413M1226.16 508.135L1264.44 530.228M1226.16 508.135L1187.88 530.228M1226.16 508.135V463.948M1264.44 530.228V574.413M1264.44 530.228L1302.71 508.134M1264.44 574.413L1226.16 596.506M1264.44 574.413L1302.71 596.506M1226.16 596.506L1187.88 574.413M1187.88 574.413V530.228M1187.88 530.228L1149.61 508.133M1302.71 640.692V596.506M1302.71 596.506L1340.99 574.412M1073.05 375.576L1111.33 397.669M1073.05 375.576L1034.78 397.669M1073.05 375.576V331.392M1111.33 397.669V441.855M1111.33 397.669L1149.61 375.577M1111.33 441.855L1073.05 463.948M1111.33 441.855L1149.61 463.948M1073.05 463.948L1034.78 441.855M1034.78 441.855V397.669M1034.78 397.669L996.501 375.577V331.392L1034.78 309.299M1149.61 508.133V463.948M1149.61 463.948L1187.88 441.856M1226.16 375.577L1264.44 397.67M1226.16 375.577L1187.88 397.67M1226.16 375.577V331.393M1264.44 397.67V441.856M1264.44 397.67L1302.71 375.578M1264.44 441.856L1226.16 463.948M1264.44 441.856L1302.71 463.948M1226.16 463.948L1187.88 441.856M1187.88 441.856V397.67M1187.88 397.67L1149.61 375.577M1302.71 508.134V463.948M1302.71 508.134L1340.99 530.227M1302.71 463.948L1340.99 441.855M1073.05 243.021L1111.33 265.113M1073.05 243.021L1034.78 265.113M1073.05 243.021V198.834M1111.33 265.113V309.299M1111.33 265.113L1149.61 243.02M1111.33 309.299L1073.05 331.392M1111.33 309.299L1149.61 331.392M1073.05 331.392L1034.78 309.299M1034.78 309.299V265.113M1034.78 265.113L996.501 243.02V198.834L1034.78 176.741M1149.61 375.577V331.392M1149.61 331.392L1187.88 309.3M1226.16 243.021L1264.44 265.114M1226.16 243.021L1187.88 265.114M1226.16 243.021V198.835M1264.44 265.114V309.3M1264.44 265.114L1302.71 243.021M1264.44 309.3L1226.16 331.393M1264.44 309.3L1302.71 331.393M1226.16 331.393L1187.88 309.3M1187.88 309.3V265.114M1187.88 265.114L1149.61 243.02M1302.71 375.578V331.393M1302.71 375.578L1340.99 397.669M1302.71 331.393L1340.99 309.299M1379.26 640.69V596.505M1532.37 640.691V596.506M1379.26 508.134L1417.54 530.227M1379.26 508.134L1340.99 530.227M1379.26 508.134V463.948M1417.54 530.227V574.412M1417.54 530.227L1455.82 508.133M1417.54 574.412L1379.26 596.505M1417.54 574.412L1455.82 596.505M1379.26 596.505L1340.99 574.412M1340.99 574.412V530.227M1455.82 640.691V596.505M1455.82 596.505L1494.09 574.413M1532.37 508.135L1570.65 530.228M1532.37 508.135L1494.09 530.228M1532.37 508.135V463.948M1570.65 530.228V574.413M1570.65 530.228L1608.92 508.134M1570.65 574.413L1532.37 596.506M1570.65 574.413L1608.92 596.506M1532.37 596.506L1494.09 574.413M1494.09 574.413V530.228M1494.09 530.228L1455.82 508.133M1608.92 640.692V596.506M1608.92 596.506L1647.2 574.412M1379.26 375.576L1417.54 397.669M1379.26 375.576L1340.99 397.669M1379.26 375.576V331.392M1417.54 397.669V441.855M1417.54 397.669L1455.82 375.577M1417.54 441.855L1379.26 463.948M1417.54 441.855L1455.82 463.948M1379.26 463.948L1340.99 441.855M1340.99 441.855V397.669M1455.82 508.133V463.948M1455.82 463.948L1494.09 441.856M1532.37 375.577L1570.65 397.67M1532.37 375.577L1494.09 397.67M1532.37 375.577V331.393M1570.65 397.67V441.856M1570.65 397.67L1608.92 375.578M1570.65 441.856L1532.37 463.948M1570.65 441.856L1608.92 463.948M1532.37 463.948L1494.09 441.856M1494.09 441.856V397.67M1494.09 397.67L1455.82 375.577M1608.92 508.134V463.948M1608.92 508.134L1647.2 530.227M1608.92 463.948L1647.2 441.855M1379.26 243.021L1417.54 265.113M1379.26 243.021L1340.99 265.113M1379.26 243.021V198.834M1417.54 265.113V309.299M1417.54 265.113L1455.82 243.02M1417.54 309.299L1379.26 331.392M1417.54 309.299L1455.82 331.392M1379.26 331.392L1340.99 309.299M1340.99 309.299V265.113M1340.99 265.113L1302.71 243.021M1455.82 375.577V331.392M1455.82 331.392L1494.09 309.3M1532.37 243.021L1570.65 265.114M1532.37 243.021L1494.09 265.114M1532.37 243.021V198.835M1570.65 265.114V309.3M1570.65 265.114L1608.92 243.021M1570.65 309.3L1532.37 331.393M1570.65 309.3L1608.92 331.393M1532.37 331.393L1494.09 309.3M1494.09 309.3V265.114M1494.09 265.114L1455.82 243.02M1608.92 375.578V331.393M1608.92 375.578L1647.2 397.669M1608.92 331.393L1647.2 309.299M1685.47 640.69V596.505M1838.58 640.691V596.506M1685.47 508.134L1723.75 530.227M1685.47 508.134L1647.2 530.227M1685.47 508.134V463.948M1723.75 530.227V574.412M1723.75 530.227L1762.03 508.133M1723.75 574.412L1685.47 596.505M1723.75 574.412L1762.03 596.505M1685.47 596.505L1647.2 574.412M1647.2 574.412V530.227M1762.03 640.691V596.505M1762.03 596.505L1800.3 574.413M1838.58 508.135L1876.86 530.228M1838.58 508.135L1800.3 530.228M1838.58 508.135V463.948M1876.86 530.228V574.413M1876.86 530.228L1915.13 508.134M1876.86 574.413L1838.58 596.506M1876.86 574.413L1915.13 596.506M1838.58 596.506L1800.3 574.413M1800.3 574.413V530.228M1800.3 530.228L1762.03 508.133M1915.13 640.692V596.506M1915.13 596.506L1953.41 574.412M1685.47 375.576L1723.75 397.669M1685.47 375.576L1647.2 397.669M1685.47 375.576V331.392M1723.75 397.669V441.855M1723.75 397.669L1762.03 375.577M1723.75 441.855L1685.47 463.948M1723.75 441.855L1762.03 463.948M1685.47 463.948L1647.2 441.855M1647.2 441.855V397.669M1762.03 508.133V463.948M1762.03 463.948L1800.3 441.856M1838.58 375.577L1876.86 397.67M1838.58 375.577L1800.3 397.67M1838.58 375.577V331.393M1876.86 397.67V441.856M1876.86 397.67L1915.13 375.578M1876.86 441.856L1838.58 463.948M1876.86 441.856L1915.13 463.948M1838.58 463.948L1800.3 441.856M1800.3 441.856V397.67M1800.3 397.67L1762.03 375.577M1915.13 508.134V463.948M1915.13 508.134L1953.41 530.227M1915.13 463.948L1953.41 441.855M1685.47 243.021L1723.75 265.113M1685.47 243.021L1647.2 265.113M1685.47 243.021V198.834M1723.75 265.113V309.299M1723.75 265.113L1762.03 243.02M1723.75 309.299L1685.47 331.392M1723.75 309.299L1762.03 331.392M1685.47 331.392L1647.2 309.299M1647.2 309.299V265.113M1647.2 265.113L1608.92 243.021M1762.03 375.577V331.392M1762.03 331.392L1800.3 309.3M1838.58 243.021L1876.86 265.114M1838.58 243.021L1800.3 265.114M1838.58 243.021V198.835M1876.86 265.114V309.3M1876.86 265.114L1915.13 243.021M1876.86 309.3L1838.58 331.393M1876.86 309.3L1915.13 331.393M1838.58 331.393L1800.3 309.3M1800.3 309.3V265.114M1800.3 265.114L1762.03 243.02M1915.13 375.578V331.393M1915.13 375.578L1953.41 397.669M1915.13 331.393L1953.41 309.299M1991.68 640.69V596.505L1953.41 574.412M1953.41 574.412V530.227M1953.41 530.227L1991.68 508.134V463.948L1953.41 441.855M1953.41 441.855V397.669M1953.41 397.669L1991.68 375.576V331.392L1953.41 309.299M1953.41 309.299V265.113M1953.41 265.113L1991.68 243.021V198.834L1953.41 176.741M1953.41 265.113L1915.13 243.021M1073.05 110.463L1111.33 132.556M1073.05 110.463L1034.78 132.556M1073.05 110.463V66.2784M1111.33 132.556V176.741M1111.33 132.556L1149.61 110.464M1111.33 176.741L1073.05 198.834M1111.33 176.741L1149.61 198.834M1073.05 198.834L1034.78 176.741M1034.78 176.741V132.556M1034.78 132.556L996.501 110.464V66.2784L1034.78 44.1856M1149.61 243.02V198.834M1149.61 198.834L1187.88 176.742M1226.16 110.464L1264.44 132.557M1226.16 110.464L1187.88 132.557M1226.16 110.464V66.2792M1264.44 132.557V176.742M1264.44 132.557L1302.71 110.465M1264.44 176.742L1226.16 198.835M1264.44 176.742L1302.71 198.835M1226.16 198.835L1187.88 176.742M1187.88 176.742V132.557M1187.88 132.557L1149.61 110.464M1302.71 243.021V198.835M1302.71 198.835L1340.99 176.741M1111.33 0V44.1856M1111.33 44.1856L1073.05 66.2784M1111.33 44.1856L1149.61 66.2784M1073.05 66.2784L1034.78 44.1856M1034.78 44.1856V0M1149.61 110.464V66.2784M1149.61 66.2784L1187.88 44.1864M1264.44 0.00088501V44.1864M1264.44 44.1864L1226.16 66.2792M1264.44 44.1864L1302.71 66.2792M1226.16 66.2792L1187.88 44.1864M1187.88 44.1864V0.00088501M1302.71 110.465V66.2792M1302.71 110.465L1340.99 132.556M1302.71 66.2792L1340.99 44.1856M1379.26 110.463L1417.54 132.556M1379.26 110.463L1340.99 132.556M1379.26 110.463V66.2784M1417.54 132.556V176.741M1417.54 132.556L1455.82 110.464M1417.54 176.741L1379.26 198.834M1417.54 176.741L1455.82 198.834M1379.26 198.834L1340.99 176.741M1340.99 176.741V132.556M1455.82 243.02V198.834M1455.82 198.834L1494.09 176.742M1532.37 110.464L1570.65 132.557M1532.37 110.464L1494.09 132.557M1532.37 110.464V66.2792M1570.65 132.557V176.742M1570.65 132.557L1608.92 110.465M1570.65 176.742L1532.37 198.835M1570.65 176.742L1608.92 198.835M1532.37 198.835L1494.09 176.742M1494.09 176.742V132.557M1494.09 132.557L1455.82 110.464M1608.92 243.021V198.835M1608.92 198.835L1647.2 176.741M1417.54 0V44.1856M1417.54 44.1856L1379.26 66.2784M1417.54 44.1856L1455.82 66.2784M1379.26 66.2784L1340.99 44.1856M1340.99 44.1856V0M1455.82 110.464V66.2784M1455.82 66.2784L1494.09 44.1864M1570.65 0.00088501V44.1864M1570.65 44.1864L1532.37 66.2792M1570.65 44.1864L1608.92 66.2792M1532.37 66.2792L1494.09 44.1864M1494.09 44.1864V0.00088501M1608.92 110.465V66.2792M1608.92 110.465L1647.2 132.556M1608.92 66.2792L1647.2 44.1856M1685.47 110.463L1723.75 132.556M1685.47 110.463L1647.2 132.556M1685.47 110.463V66.2784M1723.75 132.556V176.741M1723.75 132.556L1762.03 110.464M1723.75 176.741L1685.47 198.834M1723.75 176.741L1762.03 198.834M1685.47 198.834L1647.2 176.741M1647.2 176.741V132.556M1762.03 243.02V198.834M1762.03 198.834L1800.3 176.742M1838.58 110.464L1876.86 132.557M1838.58 110.464L1800.3 132.557M1838.58 110.464V66.2792M1876.86 132.557V176.742M1876.86 132.557L1915.13 110.465M1876.86 176.742L1838.58 198.835M1876.86 176.742L1915.13 198.835M1838.58 198.835L1800.3 176.742M1800.3 176.742V132.557M1800.3 132.557L1762.03 110.464M1915.13 243.021V198.835M1915.13 198.835L1953.41 176.741M1723.75 0V44.1856M1723.75 44.1856L1685.47 66.2784M1723.75 44.1856L1762.03 66.2784M1685.47 66.2784L1647.2 44.1856M1647.2 44.1856V0M1762.03 110.464V66.2784M1762.03 66.2784L1800.3 44.1864M1876.86 0.00088501V44.1864M1876.86 44.1864L1838.58 66.2792M1876.86 44.1864L1915.13 66.2792M1838.58 66.2792L1800.3 44.1864M1800.3 44.1864V0.00088501M1915.13 110.465V66.2792M1915.13 110.465L1953.41 132.556M1915.13 66.2792L1953.41 44.1856M1953.41 176.741V132.556M1953.41 132.556L1991.68 110.463V66.2784L1953.41 44.1856M1953.41 44.1856V0" stroke="url(#paint0_linear_0_33)" stroke-width="2"/>
<defs>
<linearGradient id="paint0_linear_0_33" x1="996.342" y1="603.794" x2="996.342" y2="0" gradientUnits="userSpaceOnUse">
<stop stop-color="white" stop-opacity="0"/>
<stop offset="1" stop-color="white" stop-opacity="0.07"/>
</linearGradient>
</defs>
</svg>
