<svg width="38" height="32" viewBox="0 0 33 28" fill="none" xmlns="http://www.w3.org/2000/svg">
  <path d="M24.3718 2.81751C25.0256 2.81751 25.6526 3.07866 26.1153 3.54365L32.3923 9.85246C33.3582 10.8232 33.3582 12.399 32.3923 13.3697L18.7377 27.0923C17.5334 28.3026 15.5833 28.3026 14.379 27.0923L0.724434 13.3697C-0.24147 12.399 -0.241486 10.8232 0.724434 9.85246L7.0015 3.54365C7.46418 3.07868 8.09116 2.81752 8.74488 2.81751H12.0172C13.6004 2.81751 13.6127 5.27004 12.0346 5.27004H9.64755C8.99381 5.27004 8.36676 5.53118 7.90406 5.99618L4.06739 9.85246C2.66572 11.2634 2.66573 11.9587 4.06739 13.3697L14.379 23.7327C16.019 25.3833 17.0977 25.3833 18.7377 23.7327L29.0493 13.3697C30.451 11.9587 30.451 11.2635 29.0493 9.85246L25.2127 5.99618C24.7501 5.53119 24.123 5.27004 23.4693 5.27004H21.1962C19.6193 5.27004 19.6356 2.81751 21.2147 2.81751H24.3718Z" fill="#E6E6F2"/>
  <path fill-rule="evenodd" clip-rule="evenodd" d="M17.3742 0.721673L18.0355 5.85251C18.3574 8.35033 20.2709 10.3384 22.7405 10.7409L26.0397 11.2785C26.9613 11.4287 26.9614 12.7635 26.0397 12.9137L22.6056 13.4733C20.2008 13.8652 18.3154 15.7635 17.9262 18.1847L17.3704 21.6423C17.2213 22.5702 15.8955 22.5702 15.7463 21.6423L15.1905 18.1847C14.8013 15.7635 12.9159 13.8652 10.5111 13.4733L7.07699 12.9137C6.15538 12.7635 6.15538 11.4287 7.07699 11.2785L10.3763 10.7409C12.8458 10.3384 14.7593 8.35033 15.0813 5.85251L15.7426 0.721673C15.8666 -0.240558 17.2501 -0.240558 17.3742 0.721673ZM14.1756 11.1945C13.7868 11.257 13.8046 11.8231 14.1934 11.8856C15.2206 12.0506 16.0421 12.8635 16.2106 13.897C16.2752 14.2931 16.8416 14.2931 16.9062 13.897C17.0746 12.8635 17.8961 12.0506 18.9234 11.8856C19.3121 11.8231 19.3299 11.257 18.9412 11.1945C17.8017 11.0114 17.0797 10.0796 16.9347 8.9701C16.8768 8.52705 16.24 8.52705 16.1821 8.9701C16.037 10.0796 15.315 11.0114 14.1756 11.1945Z" fill="#E6E6F2"/>
</svg>
