<svg preserveAspectRatio="none" width="100%" height="100%" overflow="visible" style="display: block;" viewBox="0 0 19.1443 19.1443" fill="none" xmlns="http://www.w3.org/2000/svg">
<path id="ads_click" d="M9.05575 14.9808C7.62892 14.8589 6.42958 14.2775 5.45775 13.2365C4.48592 12.1955 4 10.95 4 9.5C4 7.97217 4.53475 6.67358 5.60425 5.60425C6.67358 4.53475 7.97217 4 9.5 4C10.95 4 12.1955 4.48433 13.2365 5.453C14.2775 6.4215 14.8589 7.61925 14.9808 9.04625L13.3905 8.575C13.1743 7.675 12.7088 6.9375 11.9938 6.3625C11.2789 5.7875 10.4477 5.5 9.5 5.5C8.4 5.5 7.45833 5.89167 6.675 6.675C5.89167 7.45833 5.5 8.4 5.5 9.5C5.5 10.45 5.78908 11.2833 6.36725 12C6.94542 12.7167 7.68133 13.1833 8.575 13.4L9.05575 14.9808ZM10.2558 18.9595C10.1298 18.9865 10.0038 19 9.878 19H9.5C8.18583 19 6.95083 18.7507 5.795 18.252C4.63917 17.7533 3.63375 17.0766 2.77875 16.2218C1.92375 15.3669 1.24692 14.3617 0.74825 13.206C0.249417 12.0503 0 10.8156 0 9.50175C0 8.18775 0.249333 6.95267 0.748 5.7965C1.24667 4.64033 1.92342 3.63467 2.77825 2.7795C3.63308 1.92433 4.63833 1.24725 5.794 0.74825C6.94967 0.249417 8.18442 0 9.49825 0C10.8123 0 12.0473 0.249417 13.2035 0.74825C14.3597 1.24692 15.3653 1.92375 16.2205 2.77875C17.0757 3.63375 17.7528 4.63917 18.2518 5.795C18.7506 6.95083 19 8.18583 19 9.5V9.873C19 9.99733 18.9865 10.1218 18.9595 10.2463L17.5 9.8V9.5C17.5 7.26667 16.725 5.375 15.175 3.825C13.625 2.275 11.7333 1.5 9.5 1.5C7.26667 1.5 5.375 2.275 3.825 3.825C2.275 5.375 1.5 7.26667 1.5 9.5C1.5 11.7333 2.275 13.625 3.825 15.175C5.375 16.725 7.26667 17.5 9.5 17.5H9.8L10.2558 18.9595ZM17.6402 19.1443L13.1058 14.6L12.0193 17.8845L9.5 9.5L17.8845 12.0192L14.6 13.1058L19.1443 17.6402L17.6402 19.1443Z" fill="var(--fill-0, #E6E6F2)"/>
</svg>
