<svg preserveAspectRatio="none" width="100%" height="100%" overflow="visible" style="display: block;" viewBox="0 0 24.555 24.5622" fill="none" xmlns="http://www.w3.org/2000/svg">
<path id="rocket_launch" d="M3.5 10.2625L6.43333 11.5035C6.79578 10.7786 7.18211 10.0782 7.59233 9.4022C8.00256 8.7262 8.45467 8.06076 8.94867 7.40587L6.99233 7.02654C6.92389 7.00943 6.85767 7.01154 6.79367 7.03287C6.72944 7.0542 6.67167 7.09054 6.62033 7.14187L3.5 10.2625ZM8.028 12.7599L11.8153 16.5265C12.8084 16.1112 13.8383 15.5369 14.905 14.8035C15.9717 14.0702 16.9846 13.224 17.9437 12.2649C19.4392 10.7693 20.596 9.13987 21.414 7.37654C22.232 5.61343 22.6367 3.79932 22.628 1.9342C20.7631 1.92576 18.9478 2.33043 17.182 3.1482C15.4162 3.9662 13.7854 5.12309 12.2897 6.61887C11.3308 7.57776 10.4847 8.59276 9.75133 9.66387C9.018 10.7348 8.44355 11.7668 8.028 12.7599ZM13.7717 8.4472C13.7717 7.80098 13.9973 7.2522 14.4487 6.80087C14.9 6.34954 15.4542 6.12387 16.1113 6.12387C16.7687 6.12387 17.323 6.34954 17.7743 6.80087C18.2257 7.2522 18.4513 7.80098 18.4513 8.4472C18.4513 9.0932 18.2257 9.64187 17.7743 10.0932C17.323 10.5445 16.7687 10.7702 16.1113 10.7702C15.4542 10.7702 14.9 10.5445 14.4487 10.0932C13.9973 9.64187 13.7717 9.0932 13.7717 8.4472ZM14.3 21.0752L17.4203 17.9549C17.4717 17.9035 17.508 17.8458 17.5293 17.7815C17.5507 17.7175 17.5529 17.6513 17.536 17.5829L17.1563 15.6265C16.5017 16.1205 15.8363 16.5692 15.1603 16.9725C14.4841 17.3761 13.7837 17.7591 13.059 18.1215L14.3 21.0752ZM24.4513 0.103538C24.7367 2.67265 24.4328 5.10765 23.5397 7.40854C22.6466 9.70943 21.1769 11.883 19.1307 13.9292L18.9 14.1599L19.5023 17.1779C19.5828 17.5794 19.5649 17.97 19.4487 18.3495C19.3324 18.7291 19.1316 19.0615 18.846 19.3469L13.618 24.5622L11.1127 18.6752L5.88733 13.4495L0 10.9315L5.195 5.7162C5.48033 5.43087 5.81622 5.22787 6.20267 5.1072C6.58889 4.98676 6.98289 4.96676 7.38467 5.0472L10.4283 5.66254C10.471 5.61987 10.5072 5.58143 10.537 5.5472C10.567 5.51298 10.6033 5.47443 10.646 5.43154C12.6922 3.38554 14.8623 1.91465 17.1563 1.01887C19.4503 0.123092 21.882 -0.182017 24.4513 0.103538ZM2.30267 17.5292C2.95222 16.8796 3.74411 16.5535 4.67833 16.5509C5.61233 16.5484 6.40411 16.872 7.05367 17.5215C7.70322 18.1711 8.02467 18.9629 8.018 19.8969C8.01111 20.8311 7.68289 21.623 7.03333 22.2725C6.52911 22.7768 5.70178 23.2096 4.55133 23.5712C3.40089 23.9328 1.92478 24.2221 0.123 24.4392C0.340111 22.6376 0.631556 21.1616 0.997333 20.0112C1.36333 18.8608 1.79844 18.0334 2.30267 17.5292ZM3.72833 18.9469C3.489 19.1862 3.25822 19.5982 3.036 20.1829C2.81378 20.7675 2.66244 21.3641 2.582 21.9725C3.19067 21.8923 3.78722 21.7423 4.37167 21.5225C4.95633 21.303 5.36833 21.0735 5.60767 20.8342C5.87433 20.5675 6.01456 20.2474 6.02833 19.8739C6.04189 19.5003 5.91533 19.1802 5.64867 18.9135C5.382 18.6469 5.06189 18.5191 4.68833 18.5302C4.315 18.5413 3.995 18.6802 3.72833 18.9469Z" fill="var(--fill-0, #E6E6F2)"/>
</svg>
