<svg preserveAspectRatio="none" width="100%" height="100%" overflow="visible" style="display: block;" viewBox="0 0 40 40" fill="none" xmlns="http://www.w3.org/2000/svg">
<foreignObject x="-20" y="-20" width="80" height="80"><div xmlns="http://www.w3.org/1999/xhtml" style="backdrop-filter:blur(10px);clip-path:url(#bgblur_0_0_4_clip_path);height:100%;width:100%"></div></foreignObject><g id="vector container" data-figma-bg-blur-radius="20">
<rect width="40" height="40" rx="20" fill="var(--fill-0, white)" fill-opacity="0.2"/>
<path id="Vector" fill-rule="evenodd" clip-rule="evenodd" d="M10 10V30H30V10H10ZM20.695 12.5294L22.5341 12.5283C23.5346 12.5283 24.4754 12.9123 25.1832 13.6095C25.8911 14.3066 26.281 15.2332 26.281 16.2186C26.281 18.2533 24.6 19.9089 22.5341 19.9089C22.5335 19.9089 21.0084 19.9106 20.695 19.9106V12.5294ZM18.4464 27.3182H12.8765V12.5305H18.4464V27.3182ZM20.695 27.3336V20.3783L27.8955 27.3336H20.695Z" fill="var(--fill-0, #D5AAB3)"/>
</g>
<defs>
<clipPath id="bgblur_0_0_4_clip_path" transform="translate(20 20)"><rect width="40" height="40" rx="20"/>
</clipPath></defs>
</svg>
