<svg preserveAspectRatio="none" width="100%" height="100%" overflow="visible" style="display: block;" viewBox="0 0 48 48" fill="none" xmlns="http://www.w3.org/2000/svg">
<foreignObject x="-20" y="-20" width="88" height="88"><div xmlns="http://www.w3.org/1999/xhtml" style="backdrop-filter:blur(10px);clip-path:url(#bgblur_0_0_31_clip_path);height:100%;width:100%"></div></foreignObject><g id="vector container" data-figma-bg-blur-radius="20">
<rect width="48" height="48" rx="24" fill="var(--fill-0, white)" fill-opacity="0.05"/>
<rect width="48" height="48" rx="24" fill="url(#paint0_linear_0_31)"/>
<path id="Vector" d="M27.8975 24.9021C29.3305 22.3488 30.6822 19.9321 32.0542 17.5222C32.2541 17.174 32.4946 16.819 32.7961 16.5664C33.7142 15.7916 34.7237 15.8223 35.6587 16.5937C36.4955 17.2867 36.7563 18.5087 36.2211 19.5259C35.652 20.6114 35.0286 21.6661 34.4256 22.7345C32.9384 25.3766 31.4614 28.022 29.9674 30.6572C28.9647 32.4254 26.8406 32.4458 25.8446 30.6913C23.7815 27.0423 21.7286 23.3865 19.679 19.7307C18.8694 18.2834 19.3809 16.7951 20.8783 16.167C21.8776 15.7506 22.9922 16.208 23.6257 17.3242C24.7199 19.2494 25.7972 21.1814 26.8846 23.1134C27.1963 23.6698 27.5147 24.2228 27.8975 24.9021ZM13.9369 16.0066C14.689 16.1261 15.3902 16.5357 15.8475 17.3549C17.3449 20.0413 18.8626 22.7141 20.3599 25.4039C20.4548 25.578 20.5564 25.834 20.6886 25.9295C20.7766 25.9944 20.8884 25.9807 20.9901 25.9773C21.8709 25.9603 22.6907 26.6464 22.9922 27.4519C23.2192 28.063 23.1751 28.7525 22.8973 29.3396C22.667 29.8243 22.3926 30.2885 22.1182 30.7494C21.1256 32.4254 19.0252 32.4185 18.0597 30.7186C16.2236 27.4827 14.4112 24.2331 12.5886 20.9903C12.2939 20.4646 11.9687 19.956 11.718 19.4064C10.9998 17.843 12.138 16.0032 13.9369 16.0066Z" fill="var(--fill-0, #8389C5)"/>
</g>
<defs>
<clipPath id="bgblur_0_0_31_clip_path" transform="translate(20 20)"><rect width="48" height="48" rx="24"/>
</clipPath><linearGradient id="paint0_linear_0_31" x1="24" y1="24" x2="24" y2="48" gradientUnits="userSpaceOnUse">
<stop stop-color="white" stop-opacity="0"/>
<stop offset="1" stop-color="white" stop-opacity="0.1"/>
</linearGradient>
</defs>
</svg>
