<svg preserveAspectRatio="none" width="100%" height="100%" overflow="visible" style="display: block;" viewBox="0 0 40 40" fill="none" xmlns="http://www.w3.org/2000/svg">
<foreignObject x="-20" y="-20" width="80" height="80"><div xmlns="http://www.w3.org/1999/xhtml" style="backdrop-filter:blur(10px);clip-path:url(#bgblur_0_0_33_clip_path);height:100%;width:100%"></div></foreignObject><g id="vector container" data-figma-bg-blur-radius="20">
<rect width="40" height="40" rx="20" fill="var(--fill-0, white)" fill-opacity="0.05"/>
<rect width="40" height="40" rx="20" fill="url(#paint0_linear_0_33)"/>
<path id="Vector" d="M11.5185 28.3007L12.5762 28.0899C13.5716 27.8892 14.5727 27.7095 15.5615 27.4849C16.438 27.2769 17.2339 26.8274 17.8532 26.1907C18.4725 25.554 18.8888 24.7571 19.052 23.8961C19.1134 23.5471 19.1403 23.1932 19.1322 22.8392L19.4779 22.7567C20.3403 22.5725 21.131 22.1544 21.7579 21.5512C22.3849 20.948 22.8224 20.1845 23.0194 19.3494C23.1066 19.0327 23.1473 18.7056 23.1403 18.3778C23.1384 18.2898 23.1403 18.2009 23.1403 18.0982C23.229 18.0771 23.3102 18.0551 23.3924 18.0368C24.4092 17.8158 25.3086 17.2441 25.9234 16.428C26.4125 15.8014 26.7515 15.0769 26.9157 14.3072C27.0798 13.5375 27.0651 12.742 26.8725 11.9785C26.8527 11.8978 26.8395 11.8144 26.8149 11.7365C26.7716 11.5995 26.6771 11.4831 26.55 11.4098C26.4229 11.3366 26.2723 11.3119 26.1274 11.3405L23.1204 11.9382L19.8292 12.5945L16.0497 13.348C14.6734 13.6224 13.2968 13.8953 11.9199 14.1666C11.7918 14.2094 11.6566 14.2281 11.5213 14.2216C11.5147 14.1538 11.5053 14.0933 11.5053 14.0346C11.5043 13.0079 11.5072 11.9785 11.5006 10.9509C11.497 10.8936 11.5106 10.8365 11.5398 10.7866C11.5689 10.7366 11.6124 10.696 11.6649 10.6695C12.2273 10.3362 12.83 10.0714 13.4592 9.88116C14.3073 9.61495 15.1766 9.41689 16.0582 9.28899C16.5739 9.21107 17.0923 9.16615 17.6099 9.11024C18.7165 9.00816 19.8289 8.97692 20.9398 9.01674C21.4082 9.0259 21.8766 9.06349 22.3441 9.10565C22.856 9.1524 23.3688 9.20649 23.8769 9.28166C25.1828 9.44658 26.4574 9.79361 27.6611 10.312C27.9085 10.4247 28.1418 10.5687 28.3826 10.6988C28.4217 10.7166 28.4539 10.746 28.4747 10.7827C28.4954 10.8195 28.5035 10.8617 28.4978 10.9032C28.494 10.9527 28.4978 11.0041 28.4978 11.0527V28.9452C28.4978 29.2632 28.5403 29.2018 28.2504 29.3778C27.6699 29.7149 27.0476 29.9789 26.3984 30.1634C25.5199 30.4314 24.619 30.6247 23.7059 30.7409C23.1393 30.8142 22.5727 30.8747 22.0023 30.9307C21.7407 30.9582 21.4772 30.9627 21.2137 30.9701C20.681 30.9838 20.1484 31.0077 19.6167 30.9976C19.0161 30.9847 18.4154 30.9435 17.8157 30.9068C17.0169 30.8543 16.2224 30.7526 15.4368 30.6025C14.3872 30.4295 13.3642 30.1289 12.3921 29.7078C12.1342 29.5887 11.8915 29.442 11.6394 29.3091C11.5951 29.2897 11.5581 29.2574 11.5337 29.2166C11.5093 29.1759 11.4987 29.1287 11.5034 29.0817C11.5109 28.8709 11.5034 28.6601 11.5062 28.4492C11.5062 28.4043 11.5157 28.3612 11.5213 28.2998L11.5185 28.3007ZM20.9483 18.5364C20.9595 18.7085 20.9304 18.8808 20.8633 19.0405C20.734 19.4675 20.4849 19.8513 20.1439 20.1491C19.8029 20.4469 19.3834 20.6471 18.932 20.7272C17.7043 20.9839 16.47 21.2195 15.2375 21.4651L14.6992 21.5696C14.5572 21.5917 14.4211 21.6411 14.299 21.7147C14.1768 21.7884 14.071 21.8849 13.9877 21.9986C13.9044 22.1123 13.8453 22.241 13.8139 22.3771C13.7824 22.5133 13.7793 22.6541 13.8045 22.7914C13.8298 22.9288 13.883 23.0598 13.9611 23.177C14.0392 23.2942 14.1405 23.3951 14.2592 23.4738C14.3779 23.5526 14.5116 23.6077 14.6525 23.6358C14.7934 23.6639 14.9387 23.6645 15.0798 23.6376C15.6417 23.5368 16.1999 23.4158 16.7599 23.3049C16.8203 23.292 16.8808 23.2847 16.9573 23.2728C16.9211 23.7443 16.7402 24.1945 16.4379 24.5653C16.0351 25.059 15.4593 25.3917 14.8201 25.5003C13.7784 25.7047 12.7368 25.9128 11.696 26.12C11.6469 26.1291 11.5959 26.1319 11.5487 26.1383C11.5034 26.0045 11.4911 16.6233 11.5355 16.3941L24.8024 13.7513C24.8007 13.8066 24.7957 13.8617 24.7873 13.9163C24.6755 14.424 24.436 14.897 24.0903 15.2932C23.7444 15.6844 23.2677 15.9453 22.7436 16.0302C21.6953 16.2282 20.6489 16.4427 19.6025 16.6508L18.6959 16.8304C18.4569 16.8731 18.2391 16.9913 18.0763 17.1665C17.9136 17.3417 17.815 17.5642 17.7959 17.7994C17.7801 18.0459 17.8543 18.29 18.0054 18.4888C18.1565 18.6876 18.3749 18.8284 18.6223 18.8865C18.8768 18.9281 19.1378 18.9111 19.3844 18.837C19.849 18.7454 20.3127 18.6509 20.7774 18.5584C20.8274 18.5492 20.8794 18.5455 20.9474 18.5373L20.9483 18.5364Z" fill="var(--fill-0, #CACACA)"/>
</g>
<defs>
<clipPath id="bgblur_0_0_33_clip_path" transform="translate(20 20)"><rect width="40" height="40" rx="20"/>
</clipPath><linearGradient id="paint0_linear_0_33" x1="17.5" y1="22" x2="4" y2="31.5" gradientUnits="userSpaceOnUse">
<stop stop-color="white" stop-opacity="0"/>
<stop offset="1" stop-color="white" stop-opacity="0.1"/>
</linearGradient>
</defs>
</svg>
