<svg preserveAspectRatio="none" width="100%" height="100%" overflow="visible" style="display: block;" viewBox="0 0 242.5 22.0919" fill="none" xmlns="http://www.w3.org/2000/svg">
<path id="line" d="M242.061 12.1066C242.646 11.5208 242.646 10.5711 242.061 9.98528L232.515 0.43934C231.929 -0.146447 230.979 -0.146447 230.393 0.43934C229.808 1.02513 229.808 1.97487 230.393 2.56066L238.879 11.0459L230.393 19.5312C229.808 20.117 229.808 21.0668 230.393 21.6525C230.979 22.2383 231.929 22.2383 232.515 21.6525L242.061 12.1066ZM0 11.0459V12.5459H2.00833V11.0459V9.54594H0V11.0459ZM6.025 11.0459V12.5459H10.0417V11.0459V9.54594H6.025V11.0459ZM14.0583 11.0459V12.5459H18.075V11.0459V9.54594H14.0583V11.0459ZM22.0917 11.0459V12.5459H26.1083V11.0459V9.54594H22.0917V11.0459ZM30.125 11.0459V12.5459H34.1417V11.0459V9.54594H30.125V11.0459ZM38.1583 11.0459V12.5459H42.175V11.0459V9.54594H38.1583V11.0459ZM46.1917 11.0459V12.5459H50.2083V11.0459V9.54594H46.1917V11.0459ZM54.225 11.0459V12.5459H58.2417V11.0459V9.54594H54.225V11.0459ZM62.2583 11.0459V12.5459H66.275V11.0459V9.54594H62.2583V11.0459ZM70.2917 11.0459V12.5459H74.3083V11.0459V9.54594H70.2917V11.0459ZM78.325 11.0459V12.5459H82.3417V11.0459V9.54594H78.325V11.0459ZM86.3584 11.0459V12.5459H90.375V11.0459V9.54594H86.3584V11.0459ZM94.3917 11.0459V12.5459H98.4084V11.0459V9.54594H94.3917V11.0459ZM102.425 11.0459V12.5459H106.442V11.0459V9.54594H102.425V11.0459ZM110.458 11.0459V12.5459H114.475V11.0459V9.54594H110.458V11.0459ZM118.492 11.0459V12.5459H122.508V11.0459V9.54594H118.492V11.0459ZM126.525 11.0459V12.5459H130.542V11.0459V9.54594H126.525V11.0459ZM134.558 11.0459V12.5459H138.575V11.0459V9.54594H134.558V11.0459ZM142.592 11.0459V12.5459H146.608V11.0459V9.54594H142.592V11.0459ZM150.625 11.0459V12.5459H154.642V11.0459V9.54594H150.625V11.0459ZM158.658 11.0459V12.5459H162.675V11.0459V9.54594H158.658V11.0459ZM166.692 11.0459V12.5459H170.708V11.0459V9.54594H166.692V11.0459ZM174.725 11.0459V12.5459H178.742V11.0459V9.54594H174.725V11.0459ZM182.758 11.0459V12.5459H186.775V11.0459V9.54594H182.758V11.0459ZM190.792 11.0459V12.5459H194.808V11.0459V9.54594H190.792V11.0459ZM198.825 11.0459V12.5459H202.842V11.0459V9.54594H198.825V11.0459ZM206.858 11.0459V12.5459H210.875V11.0459V9.54594H206.858V11.0459ZM214.892 11.0459V12.5459H218.908V11.0459V9.54594H214.892V11.0459ZM222.925 11.0459V12.5459H226.942V11.0459V9.54594H222.925V11.0459ZM230.958 11.0459V12.5459H234.975V11.0459V9.54594H230.958V11.0459ZM238.992 11.0459V12.5459H241V11.0459V9.54594H238.992V11.0459Z" fill="url(#paint0_linear_0_113)"/>
<defs>
<linearGradient id="paint0_linear_0_113" x1="0" y1="11.5459" x2="241" y2="11.5459" gradientUnits="userSpaceOnUse">
<stop stop-color="#9999FF" stop-opacity="0"/>
<stop offset="0.5" stop-color="#98CBFF"/>
<stop offset="1" stop-color="#A1E5E5"/>
</linearGradient>
</defs>
</svg>
