<svg preserveAspectRatio="none" width="100%" height="100%" overflow="visible" style="display: block;" viewBox="0 0 80 80" fill="none" xmlns="http://www.w3.org/2000/svg">
<foreignObject x="-20" y="-20" width="120" height="120"><div xmlns="http://www.w3.org/1999/xhtml" style="backdrop-filter:blur(10px);clip-path:url(#bgblur_1_0_77_clip_path);height:100%;width:100%"></div></foreignObject><g id="icon" data-figma-bg-blur-radius="20">
<g clip-path="url(#clip0_0_77)">
<g id="streamline-sharp:like-1-remix">
<path id="Vector" fill-rule="evenodd" clip-rule="evenodd" d="M34.819 22H33.3702L32.9829 23.3827L29.5577 35.6H23V56H50.655L51.1049 54.7397L58.1033 35.0953L59 32.5778H43.588V29.3289C43.588 27.3851 42.8087 25.521 41.4216 24.1466C40.0345 22.7721 38.1532 22 36.1916 22H34.819ZM32.8426 37.9951L36.2678 25.7778C37.2048 25.7975 38.0966 26.1802 38.7523 26.8437C39.4079 27.5072 39.7752 28.3988 39.7754 29.3274V36.354H53.6105L47.9587 52.2207H32.5315V39.1043L32.8426 37.9951Z" fill="var(--fill-0, #A1E5E5)"/>
</g>
<g id="Rectangle 161123908" filter="url(#filter1_f_0_77)">
<path d="M-11 28C-11 56.1665 11.8335 79 40 79C68.1665 79 91 56.1665 91 28" stroke="url(#paint0_linear_0_77)" stroke-width="5"/>
</g>
<g id="Rectangle 161123909" filter="url(#filter2_f_0_77)">
<path d="M-3 58C-3 70.7025 7.29745 81 20 81H60C72.7025 81 83 70.7025 83 58" stroke="url(#paint1_linear_0_77)" stroke-width="5"/>
</g>
</g>
</g>
<defs>
<clipPath id="bgblur_1_0_77_clip_path" transform="translate(20 20)"><path d="M0 40C0 17.9086 17.9086 0 40 0V0C62.0914 0 80 17.9086 80 40V40C80 62.0914 62.0914 80 40 80V80C17.9086 80 0 62.0914 0 40V40Z"/>
</clipPath><filter id="filter1_f_0_77" x="-28.5" y="13" width="137" height="83.5" filterUnits="userSpaceOnUse" color-interpolation-filters="sRGB">
<feFlood flood-opacity="0" result="BackgroundImageFix"/>
<feBlend mode="normal" in="SourceGraphic" in2="BackgroundImageFix" result="shape"/>
<feGaussianBlur stdDeviation="7.5" result="effect1_foregroundBlur_0_77"/>
</filter>
<filter id="filter2_f_0_77" x="-10.5" y="53" width="101" height="35.5" filterUnits="userSpaceOnUse" color-interpolation-filters="sRGB">
<feFlood flood-opacity="0" result="BackgroundImageFix"/>
<feBlend mode="normal" in="SourceGraphic" in2="BackgroundImageFix" result="shape"/>
<feGaussianBlur stdDeviation="2.5" result="effect1_foregroundBlur_0_77"/>
</filter>
<linearGradient id="paint0_linear_0_77" x1="40" y1="79" x2="40" y2="28" gradientUnits="userSpaceOnUse">
<stop offset="0.25368" stop-color="#A1E5E5"/>
<stop offset="1" stop-color="#A1E5E5" stop-opacity="0"/>
</linearGradient>
<linearGradient id="paint1_linear_0_77" x1="40" y1="81" x2="40" y2="58" gradientUnits="userSpaceOnUse">
<stop offset="0.25368" stop-color="#A1E5E5"/>
<stop offset="1" stop-color="#A1E5E5" stop-opacity="0"/>
</linearGradient>
<clipPath id="clip0_0_77">
<path d="M0 40C0 17.9086 17.9086 0 40 0V0C62.0914 0 80 17.9086 80 40V40C80 62.0914 62.0914 80 40 80V80C17.9086 80 0 62.0914 0 40V40Z" fill="white"/>
</clipPath>
</defs>
</svg>
