<svg preserveAspectRatio="none" width="100%" height="100%" overflow="visible" style="display: block;" viewBox="0 0 80 80" fill="none" xmlns="http://www.w3.org/2000/svg">
<foreignObject x="0" y="0" width="0" height="0"><div xmlns="http://www.w3.org/1999/xhtml" style="backdrop-filter:blur(10px);clip-path:url(#bgblur_1_0_91_clip_path);height:100%;width:100%"></div></foreignObject><g id="icon" data-figma-bg-blur-radius="20">
<g clip-path="url(#clip0_0_91)">
<g id="picon:thunderbolt">
<g id="Vector">
<path d="M28 40L52 16L40 40H28Z" fill="var(--fill-0, #9999FF)"/>
<path d="M52 40L28 64L40 40H52Z" fill="var(--fill-0, #9999FF)"/>
</g>
</g>
<g id="Rectangle 161123908" filter="url(#filter0_f_0_91)">
<path d="M-11 28C-11 56.1665 11.8335 79 40 79C68.1665 79 91 56.1665 91 28" stroke="url(#paint0_linear_0_91)" stroke-width="5"/>
</g>
<g id="Rectangle 161123909" filter="url(#filter1_f_0_91)">
<path d="M-3 58C-3 70.7025 7.29745 81 20 81H60C72.7025 81 83 70.7025 83 58" stroke="url(#paint1_linear_0_91)" stroke-width="5"/>
</g>
</g>
</g>
<defs>
<clipPath id="bgblur_1_0_91_clip_path" transform="translate(0 0)"><path d="M0 40C0 17.9086 17.9086 0 40 0V0C62.0914 0 80 17.9086 80 40V40C80 62.0914 62.0914 80 40 80V80C17.9086 80 0 62.0914 0 40V40Z"/>
</clipPath><filter id="filter0_f_0_91" x="-28.5" y="13" width="137" height="83.5" filterUnits="userSpaceOnUse" color-interpolation-filters="sRGB">
<feFlood flood-opacity="0" result="BackgroundImageFix"/>
<feBlend mode="normal" in="SourceGraphic" in2="BackgroundImageFix" result="shape"/>
<feGaussianBlur stdDeviation="7.5" result="effect1_foregroundBlur_0_91"/>
</filter>
<filter id="filter1_f_0_91" x="-10.5" y="53" width="101" height="35.5" filterUnits="userSpaceOnUse" color-interpolation-filters="sRGB">
<feFlood flood-opacity="0" result="BackgroundImageFix"/>
<feBlend mode="normal" in="SourceGraphic" in2="BackgroundImageFix" result="shape"/>
<feGaussianBlur stdDeviation="2.5" result="effect1_foregroundBlur_0_91"/>
</filter>
<linearGradient id="paint0_linear_0_91" x1="40" y1="79" x2="40" y2="28" gradientUnits="userSpaceOnUse">
<stop offset="0.25368" stop-color="#9999FF"/>
<stop offset="1" stop-color="#9999FF" stop-opacity="0"/>
</linearGradient>
<linearGradient id="paint1_linear_0_91" x1="40" y1="81" x2="40" y2="58" gradientUnits="userSpaceOnUse">
<stop offset="0.25368" stop-color="#9999FF"/>
<stop offset="1" stop-color="#9999FF" stop-opacity="0"/>
</linearGradient>
<clipPath id="clip0_0_91">
<path d="M0 40C0 17.9086 17.9086 0 40 0V0C62.0914 0 80 17.9086 80 40V40C80 62.0914 62.0914 80 40 80V80C17.9086 80 0 62.0914 0 40V40Z" fill="white"/>
</clipPath>
</defs>
</svg>
