<svg preserveAspectRatio="none" width="100%" height="100%" overflow="visible" style="display: block;" viewBox="0 0 39.7706 10.92" fill="none" xmlns="http://www.w3.org/2000/svg">
<g id="&#208;&#161;&#209;&#130;&#208;&#176;&#209;&#130;&#209;&#131;&#209;&#129;" opacity="0.4">
<path d="M4.5 8.88C3.868 8.88 3.276 8.772 2.724 8.556C2.18 8.332 1.704 8.024 1.296 7.632C0.896 7.232 0.58 6.764 0.348 6.228C0.116 5.684 0 5.088 0 4.44C0 3.792 0.116 3.2 0.348 2.664C0.58 2.12 0.896 1.652 1.296 1.26C1.704 0.86 2.18 0.552 2.724 0.336C3.276 0.112 3.868 0 4.5 0C4.932 0 5.324 0.0439999 5.676 0.132C6.028 0.22 6.344 0.336 6.624 0.48C6.904 0.624 7.148 0.788 7.356 0.972C7.572 1.156 7.756 1.344 7.908 1.536C8.268 1.984 8.532 2.492 8.7 3.06H7.32C7.176 2.74 6.976 2.452 6.72 2.196C6.504 1.98 6.216 1.78 5.856 1.596C5.496 1.412 5.044 1.32 4.5 1.32C4.052 1.32 3.64 1.396 3.264 1.548C2.888 1.7 2.564 1.912 2.292 2.184C2.02 2.456 1.808 2.784 1.656 3.168C1.512 3.552 1.44 3.976 1.44 4.44C1.44 4.904 1.512 5.328 1.656 5.712C1.808 6.096 2.02 6.424 2.292 6.696C2.564 6.968 2.888 7.18 3.264 7.332C3.64 7.484 4.052 7.56 4.5 7.56C5.052 7.56 5.512 7.46 5.88 7.26C6.248 7.06 6.544 6.84 6.768 6.6C7.032 6.32 7.236 6 7.38 5.64H8.76C8.56 6.248 8.268 6.788 7.884 7.26C7.724 7.468 7.536 7.668 7.32 7.86C7.104 8.052 6.856 8.224 6.576 8.376C6.304 8.528 5.992 8.648 5.64 8.736C5.296 8.832 4.916 8.88 4.5 8.88Z" fill="var(--fill-0, #17171A)"/>
<path d="M11.2762 3.66H9.23625V2.52H14.5763V3.66H12.5363V8.64H11.2762V3.66Z" fill="var(--fill-0, #17171A)"/>
<path d="M17.8772 8.76C17.4692 8.76 17.0892 8.684 16.7372 8.532C16.3932 8.38 16.0892 8.168 15.8252 7.896C15.5692 7.616 15.3652 7.28 15.2132 6.888C15.0692 6.496 14.9972 6.06 14.9972 5.58C14.9972 5.1 15.0692 4.664 15.2132 4.272C15.3652 3.88 15.5692 3.548 15.8252 3.276C16.0892 2.996 16.3932 2.78 16.7372 2.628C17.0892 2.476 17.4692 2.4 17.8772 2.4C18.1892 2.4 18.4652 2.448 18.7052 2.544C18.9452 2.64 19.1452 2.744 19.3052 2.856C19.4972 2.992 19.6612 3.14 19.7972 3.3H19.8572V2.52H21.1172V8.64H19.8572V7.8H19.7972C19.6612 7.976 19.4972 8.136 19.3052 8.28C19.1452 8.4 18.9452 8.512 18.7052 8.616C18.4652 8.712 18.1892 8.76 17.8772 8.76ZM18.1172 7.62C18.6292 7.62 19.0452 7.448 19.3652 7.104C19.6932 6.752 19.8572 6.244 19.8572 5.58C19.8572 4.916 19.6932 4.412 19.3652 4.068C19.0452 3.716 18.6292 3.54 18.1172 3.54C17.5732 3.54 17.1372 3.716 16.8092 4.068C16.4812 4.412 16.3172 4.916 16.3172 5.58C16.3172 6.244 16.4812 6.752 16.8092 7.104C17.1372 7.448 17.5732 7.62 18.1172 7.62Z" fill="var(--fill-0, #17171A)"/>
<path d="M23.9325 3.66H21.8925V2.52H27.2325V3.66H25.1925V8.64H23.9325V3.66Z" fill="var(--fill-0, #17171A)"/>
<path d="M30.3534 8.64H29.0934L27.4134 2.52H28.7334L30.0534 7.44H30.7134L32.1534 2.52H33.4734L30.9534 10.92H29.6334L30.3534 8.64Z" fill="var(--fill-0, #17171A)"/>
<path d="M36.8306 8.76C36.3986 8.76 35.9946 8.684 35.6186 8.532C35.2426 8.372 34.9186 8.152 34.6466 7.872C34.3746 7.584 34.1586 7.248 33.9986 6.864C33.8466 6.472 33.7706 6.044 33.7706 5.58C33.7706 5.116 33.8466 4.692 33.9986 4.308C34.1586 3.916 34.3746 3.58 34.6466 3.3C34.9186 3.012 35.2426 2.792 35.6186 2.64C35.9946 2.48 36.3986 2.4 36.8306 2.4C37.1346 2.4 37.4106 2.432 37.6586 2.496C37.9066 2.56 38.1266 2.644 38.3186 2.748C38.5186 2.852 38.6906 2.972 38.8346 3.108C38.9786 3.244 39.1066 3.38 39.2186 3.516C39.4746 3.836 39.6586 4.204 39.7706 4.62H38.4506C38.3866 4.42 38.2826 4.24 38.1386 4.08C38.0186 3.944 37.8546 3.82 37.6466 3.708C37.4386 3.596 37.1666 3.54 36.8306 3.54C36.5906 3.54 36.3626 3.588 36.1466 3.684C35.9386 3.78 35.7546 3.916 35.5946 4.092C35.4426 4.268 35.3186 4.484 35.2226 4.74C35.1346 4.988 35.0906 5.268 35.0906 5.58C35.0906 5.892 35.1346 6.176 35.2226 6.432C35.3186 6.68 35.4426 6.892 35.5946 7.068C35.7546 7.244 35.9386 7.38 36.1466 7.476C36.3626 7.572 36.5906 7.62 36.8306 7.62C37.1746 7.62 37.4546 7.564 37.6706 7.452C37.8866 7.34 38.0586 7.216 38.1866 7.08C38.3306 6.928 38.4386 6.748 38.5106 6.54H39.7706C39.6586 6.964 39.4746 7.336 39.2186 7.656C39.1066 7.792 38.9786 7.928 38.8346 8.064C38.6906 8.192 38.5186 8.308 38.3186 8.412C38.1266 8.516 37.9066 8.6 37.6586 8.664C37.4106 8.728 37.1346 8.76 36.8306 8.76Z" fill="var(--fill-0, #17171A)"/>
</g>
</svg>
