<svg preserveAspectRatio="none" width="100%" height="100%" overflow="visible" style="display: block;" viewBox="0 0 1058.74 53.1318" fill="none" xmlns="http://www.w3.org/2000/svg">
<g id="content">
<path id="Vector" d="M1058.74 14.0082V10H1.74219V14.0082C1.74219 25.7201 1.74219 31.5761 4.01599 36.0494C6.01609 39.9843 9.20753 43.1835 13.133 45.1884C17.5955 47.4677 23.4374 47.4677 35.1212 47.4677H1025.36C1037.05 47.4677 1042.89 47.4677 1047.35 45.1884C1051.28 43.1835 1054.47 39.9843 1056.47 36.0494C1058.74 31.5761 1058.74 25.7201 1058.74 14.0082Z" fill="url(#paint0_linear_0_158)"/>
<g id="foot">
<path id="Vector_2" d="M997.895 50.0817C999.286 49.7332 1000.21 48.1938 1000.5 47.4677H931.398C931.688 48.1938 932.615 49.7332 934.006 50.0817C934.151 51.0983 934.788 53.1314 936.179 53.1314H995.722C997.113 53.1314 997.75 51.0983 997.895 50.0817Z" fill="url(#paint1_linear_0_158)"/>
<path id="Intersect" d="M997.832 50.4277C997.608 51.4985 996.968 53.1318 995.722 53.1318H936.179C934.882 53.1318 934.239 51.3627 934.041 50.2998H997.832V50.4277Z" fill="url(#paint2_linear_0_158)"/>
<path id="Intersect_2" d="M997.833 50.4277C997.769 50.7325 997.67 51.0824 997.535 51.4277H934.364C934.209 51.0332 934.103 50.632 934.042 50.2998H997.833V50.4277Z" fill="var(--fill-0, #383838)"/>
</g>
<g id="foot_2">
<path id="Vector_3" d="M125.609 50.0817C127 49.7332 127.927 48.1938 128.217 47.4677H59.1123C59.402 48.1938 60.3292 49.7332 61.72 50.0817C61.8649 51.0983 62.5023 53.1314 63.8931 53.1314H123.436C124.827 53.1314 125.465 51.0983 125.609 50.0817Z" fill="url(#paint3_linear_0_158)"/>
<path id="Intersect_3" d="M125.546 50.4316C125.321 51.5024 124.681 53.1318 123.436 53.1318H63.8929C62.5959 53.1317 61.9543 51.3627 61.7562 50.2998H125.546V50.4316Z" fill="url(#paint4_linear_0_158)"/>
<path id="Intersect_4" d="M125.546 50.4316C125.483 50.7355 125.385 51.0839 125.25 51.4277H62.0786C61.9236 51.0331 61.8183 50.632 61.7563 50.2998H125.546V50.4316Z" fill="var(--fill-0, #383838)"/>
</g>
<g id="Vector_4">
<path d="M438.102 10H621.947C621.947 17.9403 615.511 24.3771 607.57 24.3771H452.48C444.539 24.3771 438.102 17.9403 438.102 10Z" fill="url(#paint5_linear_0_158)"/>
<path d="M621.437 10.5C621.174 17.9325 615.067 23.877 607.57 23.877H452.479C444.983 23.8769 438.875 17.9325 438.612 10.5H621.437Z" stroke="var(--stroke-0, white)" stroke-opacity="0.1"/>
</g>
<rect id="Rectangle" x="976.599" y="10" width="70.4087" height="28.7543" fill="url(#paint6_linear_0_158)"/>
<rect id="Rectangle_2" width="73.0164" height="28.7543" transform="matrix(-1 0 0 1 75.1933 10)" fill="url(#paint7_linear_0_158)"/>
<g id="Rectangle_3" filter="url(#filter0_f_0_158)">
<path d="M1038.31 10H1049.62V27.5413C1049.62 31.3279 1046.55 34.3975 1042.76 34.3975C1040.3 34.3975 1038.31 32.408 1038.31 29.9537V10Z" fill="var(--fill-0, #D2D2DA)"/>
</g>
<g id="Rectangle_4" filter="url(#filter1_f_0_158)">
<path d="M19.5617 10H10V28.5961C10 31.8001 12.5974 34.3975 15.8015 34.3975C17.8782 34.3975 19.5617 32.714 19.5617 30.6373V10Z" fill="var(--fill-0, #D2D2DA)"/>
</g>
</g>
<defs>
<filter id="filter0_f_0_158" x="1030.31" y="2" width="27.3002" height="40.3975" filterUnits="userSpaceOnUse" color-interpolation-filters="sRGB">
<feFlood flood-opacity="0" result="BackgroundImageFix"/>
<feBlend mode="normal" in="SourceGraphic" in2="BackgroundImageFix" result="shape"/>
<feGaussianBlur stdDeviation="4" result="effect1_foregroundBlur_0_158"/>
</filter>
<filter id="filter1_f_0_158" x="0" y="0" width="29.5617" height="44.3975" filterUnits="userSpaceOnUse" color-interpolation-filters="sRGB">
<feFlood flood-opacity="0" result="BackgroundImageFix"/>
<feBlend mode="normal" in="SourceGraphic" in2="BackgroundImageFix" result="shape"/>
<feGaussianBlur stdDeviation="5" result="effect1_foregroundBlur_0_158"/>
</filter>
<linearGradient id="paint0_linear_0_158" x1="530.242" y1="10" x2="530.242" y2="47.4677" gradientUnits="userSpaceOnUse">
<stop stop-color="#AEAFB4"/>
<stop offset="0.192522" stop-color="#AFB0B5"/>
<stop offset="0.376094" stop-color="#AFB0B5"/>
<stop offset="0.598958" stop-color="#7D7E82"/>
<stop offset="0.713542" stop-color="#696A6F"/>
<stop offset="0.852125" stop-color="#838489"/>
<stop offset="0.931356" stop-color="#ABACB0"/>
</linearGradient>
<linearGradient id="paint1_linear_0_158" x1="931.398" y1="50.2995" x2="1000.5" y2="50.2995" gradientUnits="userSpaceOnUse">
<stop stop-color="#8C8D91"/>
<stop offset="0.173014" stop-color="#525358"/>
<stop offset="0.31824" stop-color="#78797D"/>
<stop offset="0.465029" stop-color="#A0A0A2"/>
<stop offset="0.691458" stop-color="#9A9A9C"/>
<stop offset="0.825754" stop-color="#4F5055"/>
<stop offset="0.941311" stop-color="#9E9EA0"/>
<stop offset="1" stop-color="#848589"/>
</linearGradient>
<linearGradient id="paint2_linear_0_158" x1="934.041" y1="51.7158" x2="997.832" y2="51.7158" gradientUnits="userSpaceOnUse">
<stop stop-color="#575757"/>
<stop offset="0.0827846" stop-color="#2D2D2D"/>
<stop offset="0.490477" stop-color="#4E4E4E"/>
<stop offset="0.824814" stop-color="#2A2A2A"/>
<stop offset="1" stop-color="#5C5C5C"/>
</linearGradient>
<linearGradient id="paint3_linear_0_158" x1="59.1123" y1="50.2995" x2="128.217" y2="50.2995" gradientUnits="userSpaceOnUse">
<stop stop-color="#8C8D91"/>
<stop offset="0.173014" stop-color="#525358"/>
<stop offset="0.31824" stop-color="#78797D"/>
<stop offset="0.465029" stop-color="#A0A0A2"/>
<stop offset="0.691458" stop-color="#9A9A9C"/>
<stop offset="0.825754" stop-color="#4F5055"/>
<stop offset="0.941311" stop-color="#9E9EA0"/>
<stop offset="1" stop-color="#848589"/>
</linearGradient>
<linearGradient id="paint4_linear_0_158" x1="61.7562" y1="51.7158" x2="125.546" y2="51.7158" gradientUnits="userSpaceOnUse">
<stop stop-color="#575757"/>
<stop offset="0.0827846" stop-color="#2D2D2D"/>
<stop offset="0.490477" stop-color="#4E4E4E"/>
<stop offset="0.824814" stop-color="#2A2A2A"/>
<stop offset="1" stop-color="#5C5C5C"/>
</linearGradient>
<linearGradient id="paint5_linear_0_158" x1="438.537" y1="16.9707" x2="621.947" y2="16.9707" gradientUnits="userSpaceOnUse">
<stop stop-color="#25262B"/>
<stop offset="0.015659" stop-color="#606166"/>
<stop offset="0.035819" stop-color="#9FA0A4"/>
<stop offset="0.0504351" stop-color="#C8C8CE"/>
<stop offset="0.479167" stop-color="#D7D8DD"/>
<stop offset="0.941214" stop-color="#CBCBD3"/>
<stop offset="0.970403" stop-color="#A7A8AC"/>
<stop offset="0.980129" stop-color="#595A5E"/>
<stop offset="1" stop-color="#27282C"/>
</linearGradient>
<linearGradient id="paint6_linear_0_158" x1="1047.01" y1="24.8128" x2="976.599" y2="24.8128" gradientUnits="userSpaceOnUse">
<stop stop-color="#65666B" stop-opacity="0"/>
<stop offset="0.259918" stop-color="#65666B"/>
<stop offset="1" stop-color="#65666B" stop-opacity="0"/>
</linearGradient>
<linearGradient id="paint7_linear_0_158" x1="73.0164" y1="14.8128" x2="2.4992e-08" y2="14.8128" gradientUnits="userSpaceOnUse">
<stop stop-color="#65666B" stop-opacity="0"/>
<stop offset="0.259918" stop-color="#65666B"/>
<stop offset="1" stop-color="#65666B" stop-opacity="0"/>
</linearGradient>
</defs>
</svg>
